<svg xmlns="http://www.w3.org/2000/svg" viewBox="0 0 64 64" id="flower"><path fill="#e7cfb3" d="M24.9 64c-.1 0-.3 0-.4-.1-.5-.2-.8-.8-.5-1.3 4.6-11.3 7-23.3 7-35.6 0-.6.4-1 1-1s1 .4 1 1c0 12.6-2.4 24.8-7.2 36.4-.2.4-.5.6-.9.6z"></path><linearGradient id="a" x1="35" x2="35" y1="22" gradientUnits="userSpaceOnUse"><stop offset="0" stop-color="#f96762"></stop><stop offset="1" stop-color="#ec4130"></stop></linearGradient><path fill="url(#a)" d="M32 22c5.5 0 10-4.5 10-10V2c0-1.1-.9-2-2-2-6.6 0-12 5.4-12 12v6c0 2.2 1.8 4 4 4z"></path><linearGradient id="b" x1="41" x2="41" y1="22" gradientTransform="matrix(-1 0 0 1 70 0)" gradientUnits="userSpaceOnUse"><stop offset="0" stop-color="#ec4130"></stop><stop offset="1" stop-color="#f96762"></stop></linearGradient><path fill="url(#b)" d="M32 22c-5.5 0-10-4.5-10-10V2c0-1.1.9-2 2-2 6.6 0 12 5.4 12 12v6c0 2.2-1.8 4-4 4z"></path><linearGradient id="c" x1="17" x2="17" y1="28" y2="4" gradientTransform="matrix(-1 0 0 1 54 0)" gradientUnits="userSpaceOnUse"><stop offset="0" stop-color="#ec4130"></stop><stop offset="1" stop-color="#f96762"></stop></linearGradient><path fill="url(#c)" d="M44 4c-8.8 0-16 7.2-16 16v4c0 2.2 1.8 4 4 4 7.7 0 14-6.3 14-14V6c0-1.1-.9-2-2-2z"></path><linearGradient id="d" x1="27" x2="27" y1="28" y2="4" gradientUnits="userSpaceOnUse"><stop offset="0" stop-color="#f96762"></stop><stop offset="1" stop-color="#ec4130"></stop></linearGradient><path fill="url(#d)" d="M20 4c8.8 0 16 7.2 16 16v4c0 2.2-1.8 4-4 4-7.7 0-14-6.3-14-14V6c0-1.1.9-2 2-2z"></path><linearGradient id="e" x1="29.586" x2="44.414" y1="49.414" y2="34.586" gradientUnits="userSpaceOnUse"><stop offset="0" stop-color="#e7cfb3"></stop><stop offset="1" stop-color="#f5ece1"></stop></linearGradient><path fill="url(#e)" d="M31 50c-1.1 0-2-.9-2-2 0-7.7 6.3-14 14-14 1.1 0 2 .9 2 2 0 7.7-6.3 14-14 14z"></path></svg>